<?xml version="1.0" encoding="utf-8"?>
<!-- Generator: Adobe Illustrator 16.0.3, SVG Export Plug-In . SVG Version: 6.00 Build 0)  -->
<!DOCTYPE svg PUBLIC "-//W3C//DTD SVG 1.1//EN" "http://www.w3.org/Graphics/SVG/1.1/DTD/svg11.dtd">
<svg version="1.1" id="Vrstva_1" xmlns="http://www.w3.org/2000/svg" xmlns:xlink="http://www.w3.org/1999/xlink" x="0px" y="0px"
	 width="283.465px" height="283.465px" viewBox="0 0 283.465 283.465" enable-background="new 0 0 283.465 283.465"
	 xml:space="preserve">
<linearGradient id="SVGID_1_" gradientUnits="userSpaceOnUse" x1="66.7524" y1="79.3545" x2="289.1625" y2="79.3545" gradientTransform="matrix(1 0 0 -1 -0.02 282.5596)">
	<stop  offset="0" style="stop-color:#FFFFFF"/>
	<stop  offset="1" style="stop-color:#FFFFFF;stop-opacity:0.1"/>
</linearGradient>
<polygon fill="url(#SVGID_1_)" points="26.608,196.502 41.795,190.095 89.482,177.732 142.18,172.762 192.857,176.232 
	229.607,184.632 256.148,193.982 244.848,213.909 231.835,231.834 153.982,220.232 69.982,233.648 52.514,232.709 31.733,203.205 
	"/>
<path opacity="0.5" fill="#6D472C" enable-background="new    " d="M20.732,108.982l4.375-16.25l10-18l9.282-12.875l7.718-9.125
	l14.625-11.125l5.375-4.625l25.875-13.25l28.125-6.875h16.073l27.177,2l19.125,5.75l19.5,10.125l21,15.75l14.979,17.375
	l10.396,17.25l6.625,14.75l0.875,6.75l-31.625-4.25l-3.75-2.625l0.875-16.375l-8.875-18.5l-25.375-10.5l-23.875-7.125
	c0,0-18.875-10.375-19.5-10.25s-27.375,2.875-27.375,2.875l-14.125,7.75l-16.2,4.25L80.353,62.92l-8.746,10.563l-5,16.375
	l-2.875,14.875L20.732,108.982z"/>
<rect x="94.289" y="227.898" opacity="0.5" fill="#6D472C" enable-background="new    " width="25.61" height="30.5"/>
<rect x="162.135" y="227.898" opacity="0.5" fill="#6D472C" enable-background="new    " width="25.609" height="30.5"/>
<rect x="121.928" y="221.898" fill="#FFFFFF" width="38.138" height="38"/>
<polygon fill="#FFFFFF" points="260.564,183.564 264.314,168.814 267.814,144.398 267.148,135.649 265.148,116.065 262.398,113.482 
	197.482,103.649 165.398,102.982 161.148,110.815 153.502,112.046 149.064,111.232 136.732,119.898 128.065,122.732 
	118.315,112.982 104.982,101.232 75.482,102.482 20.482,109.982 17.482,118.252 16.316,126.732 15.316,143.398 18.732,167.314 
	22.482,181.182 27.232,193.814 44.39,187.188 73.566,179.566 113.566,174.566 142.18,172.762 163.671,172.762 213.732,180.732 
	236.861,187.188 256.148,193.982 "/>
<polygon opacity="0.7" fill="#FFFFFF" enable-background="new    " points="65.982,98.732 68.524,80.232 80.353,61.732 
	94.47,51.482 111.732,47.482 121.232,41.232 143.982,36.982 165.068,44.232 168.982,49.732 194.232,52.232 200.982,59.732 
	215.982,65.482 226.482,80.482 224.732,100.232 172.232,101.982 161.482,107.732 153.984,111.485 148.604,110.982 138.732,116.933 
	133.232,122.233 124.983,121.62 107.827,99.592 68.524,103.982 "/>
<path d="M50.127,148.266c0.002-0.23,0.003-0.465,0.003-0.695c0.719-0.49,1.465-1.299,2.239-2.414
	c0.773-1.111,1.452-2.651,2.037-4.617c0.583-1.967,0.877-4.282,0.891-6.97c0.017-4.323-0.688-7.529-2.12-9.669
	c-1.433-2.133-3.438-3.058-6.011-2.705c-4.725,0.649-9.445,1.349-14.158,2.097v12.203c0.511-0.107,1.021-0.213,1.535-0.318
	c-0.004,11.091-0.008,22.183-0.012,33.276c-0.508,0.174-1.017,0.35-1.523,0.525v12.203c4.646-1.857,9.313-3.6,13.996-5.229
	c2.571-0.889,4.67-2.717,6.295-5.445c1.627-2.727,2.452-6.439,2.472-11.207c0.022-4.453-0.551-7.396-1.713-8.861
	C52.894,148.982,51.583,148.248,50.127,148.266 M43.157,133.473c0.555-0.104,1.109-0.208,1.663-0.312
	c0.596-0.109,1.041,0.172,1.337,0.847c0.296,0.678,0.441,1.788,0.438,3.337c-0.004,0.847-0.005,1.693-0.007,2.54
	c-0.005,1.551-0.157,2.725-0.455,3.521c-0.303,0.801-0.746,1.264-1.342,1.401c-0.553,0.125-1.107,0.256-1.661,0.387
	C43.141,141.287,43.146,137.377,43.157,133.473 M46.744,159.994c-0.005,1.549-0.156,2.73-0.454,3.549
	c-0.3,0.82-0.743,1.322-1.336,1.504c-0.624,0.193-1.246,0.389-1.868,0.586c0.009-4.096,0.017-8.195,0.027-12.293
	c0.623-0.166,1.247-0.332,1.871-0.494c0.596-0.156,1.039,0.094,1.334,0.746s0.44,1.752,0.436,3.301
	C46.751,157.926,46.748,158.961,46.744,159.994"/>
<path d="M78.927,151.506c0.024-4.344-0.95-6.662-2.93-6.961c-0.008-0.213-0.018-0.424-0.028-0.631
	c1.037-0.986,1.844-2.562,2.412-4.718c0.57-2.157,0.865-4.64,0.882-7.466c0.032-5.017-0.652-8.556-2.042-10.663
	c-1.391-2.098-3.419-3.044-6.083-2.767c-4.738,0.491-9.474,1.03-14.207,1.615c-0.016,3.713-0.031,7.428-0.048,11.139
	c0.514-0.084,1.028-0.167,1.543-0.249c-0.046,10.133-0.094,20.265-0.141,30.402c-0.513,0.139-1.027,0.275-1.539,0.414
	c-0.015,3.715-0.033,7.426-0.05,11.141c4.058-1.262,8.127-2.439,12.204-3.531c0.019-3.563,0.04-7.127,0.059-10.689
	c-0.677,0.156-1.359,0.316-2.037,0.48c0.02-3.59,0.039-7.176,0.057-10.764c0.929-0.189,1.642-0.182,2.148,0.021
	c0.503,0.205,0.869,0.717,1.102,1.531c0.232,0.82,0.346,2.07,0.334,3.758c-0.029,5.082-0.059,10.164-0.088,15.246
	c3.266-0.854,6.538-1.648,9.814-2.393c0.022-3.443,0.041-6.889,0.064-10.336c-0.486,0.1-0.972,0.189-1.457,0.291
	C78.907,154.752,78.915,153.133,78.927,151.506 M70.513,135.491c-0.009,1.429-0.164,2.505-0.468,3.223
	c-0.302,0.724-0.755,1.136-1.348,1.242c-0.559,0.097-1.117,0.196-1.672,0.294c0.018-3.588,0.039-7.175,0.058-10.762
	c0.558-0.083,1.117-0.162,1.672-0.238c0.599-0.084,1.044,0.192,1.339,0.82c0.297,0.629,0.44,1.657,0.432,3.085
	C70.521,133.934,70.518,134.713,70.513,135.491"/>
<path d="M81.642,127.592c0.517-0.061,1.035-0.122,1.552-0.179c-0.057,9.387-0.115,18.772-0.172,28.16
	c-0.518,0.096-1.036,0.196-1.553,0.297c-0.022,3.438-0.042,6.871-0.062,10.307c6.98-1.551,13.98-2.844,20.998-3.877
	c0.034-6.424,0.072-12.852,0.104-19.269c-2.325,0.257-4.648,0.537-6.971,0.835c-0.018,3.198-0.038,6.396-0.055,9.592
	c-1.256,0.188-2.512,0.387-3.766,0.588c0.024-3.633,0.045-7.266,0.066-10.897c0.913-0.125,1.824-0.246,2.737-0.362
	c0.014-2.311,0.027-4.625,0.04-6.936c-0.911,0.102-1.823,0.211-2.735,0.32c0.019-3.222,0.04-6.448,0.058-9.673
	c1.252-0.122,2.505-0.24,3.759-0.353c-0.016,2.792-0.031,5.584-0.05,8.377c2.322-0.253,4.645-0.487,6.967-0.705
	c0.032-6.024,0.064-12.048,0.098-18.073c-6.989,0.414-13.973,0.926-20.952,1.544C81.686,120.722,81.664,124.156,81.642,127.592"/>
<path d="M189.104,143.311c0.019,3.164,0.037,6.334,0.058,9.502c-1.261-0.17-2.515-0.338-3.771-0.492
	c-0.02-3.545-0.037-7.084-0.057-10.625c0.912,0.096,1.824,0.194,2.736,0.297c-0.014-2.279-0.023-4.561-0.035-6.841
	c-0.912-0.09-1.825-0.176-2.738-0.263c-0.018-3.143-0.031-6.287-0.051-9.431c1.254,0.096,2.508,0.194,3.76,0.296
	c0.02,2.767,0.034,5.533,0.051,8.297c2.32,0.232,4.643,0.48,6.963,0.744c-0.037-6.146-0.076-12.29-0.11-18.435
	c-6.984-0.501-13.974-0.904-20.968-1.202c0.016,3.207,0.027,6.417,0.041,9.626c0.52,0.03,1.037,0.057,1.557,0.089
	c0.042,8.823,0.078,17.648,0.119,26.475c-0.521-0.05-1.041-0.101-1.561-0.147c0.014,3.209,0.025,6.418,0.041,9.625
	c7.03,0.752,14.051,1.76,21.055,3.024c-0.041-6.554-0.08-13.103-0.119-19.654C193.751,143.873,191.43,143.584,189.104,143.311"/>
<path d="M220.07,158.512c-1.816-13.746-3.639-27.257-5.463-40.557c-3.76-0.37-7.521-0.711-11.287-1.022
	c-1.668,12.575-3.34,24.987-5.016,37.256c-0.414-0.069-0.828-0.142-1.242-0.205c0.02,3.345,0.039,6.688,0.062,10.033
	c3.545,0.651,7.087,1.373,10.625,2.157c-0.022-3.436-0.043-6.87-0.063-10.307c-0.623-0.117-1.244-0.24-1.859-0.354
	c0.15-1.638,0.309-3.274,0.463-4.914c1.404,0.248,2.813,0.504,4.22,0.769c0.177,1.723,0.353,3.442,0.527,5.168
	c-0.62-0.129-1.243-0.254-1.862-0.375c0.021,3.448,0.041,6.899,0.063,10.35c4.054,0.923,8.097,1.931,12.132,3.021
	c-0.021-3.574-0.04-7.152-0.063-10.73C220.896,158.701,220.484,158.605,220.07,158.512 M206.93,144.07
	c0.398-4.091,0.797-8.201,1.195-12.318c0.104,0.012,0.207,0.027,0.311,0.04c0.451,4.234,0.897,8.483,1.349,12.745
	C208.832,144.377,207.883,144.223,206.93,144.07"/>
<linearGradient id="SVGID_2_" gradientUnits="userSpaceOnUse" x1="146.3906" y1="207.8271" x2="146.3906" y2="188.2485" gradientTransform="matrix(1 0 0 -1 -0.02 282.5596)">
	<stop  offset="0" style="stop-color:#FFFFFF"/>
	<stop  offset="1" style="stop-color:#FFFFFF;stop-opacity:0.1"/>
</linearGradient>
<path fill="url(#SVGID_2_)" d="M138.358,38.25c-11.422,0-21.451,5.607-27.183,14.059c-2.725-1.479-5.847-2.319-9.165-2.319
	c-9.035,0-16.594,6.236-18.663,14.632c-8.664,2.191-15.085,10.016-15.085,19.36c0,11.041,8.951,19.992,19.992,19.992
	c9.824,0,17.668,0.097,19.35-9.242c1.338-0.431,4.435,3.448,5.627,2.75c5.809,8.021,39.365,1.5,50.438,1.5
	c17.813,0,60.812-2.566,60.812-19.375C224.482,62.799,156.173,38.25,138.358,38.25z"/>
<path d="M239.527,142.602c-1.09-7.482-2.188-14.873-3.286-22.178c-4.718-0.612-9.438-1.176-14.166-1.692
	c0.019,3.588,0.038,7.176,0.056,10.765c0.52,0.074,1.033,0.149,1.549,0.225c0.055,9.896,0.106,19.79,0.159,29.686
	c-0.515-0.125-1.026-0.252-1.542-0.375c0.02,3.592,0.039,7.178,0.059,10.768c3.375,0.926,6.742,1.916,10.104,2.961
	c-0.019-3.715-0.03-7.426-0.049-11.143c-0.494-0.133-0.986-0.264-1.479-0.396c-0.037-7.77-0.072-15.539-0.109-23.312
	c1.855,11.798,3.699,23.823,5.537,36.093c1.515,0.492,3.027,0.998,4.539,1.518c1.695-11.406,3.399-23.033,5.115-34.899
	c0.02,8.337,0.036,16.677,0.055,25.013c-0.488-0.154-0.979-0.311-1.469-0.461c0.01,3.887,0.02,7.77,0.026,11.654
	c3.853,1.373,7.69,2.822,11.521,4.354c0.002-4.063,0.002-8.135,0-12.203c-0.506-0.178-1.016-0.354-1.521-0.525
	c-0.006-11.096-0.007-22.188-0.016-33.276c0.514,0.105,1.025,0.213,1.537,0.319c0.002-4.069,0.002-8.135,0-12.204
	c-4.529-0.718-9.063-1.391-13.604-2.021C241.535,128.462,240.531,135.569,239.527,142.602"/>
<path d="M231.835,51.631c-24.065-24.066-56.065-37.32-90.101-37.32s-66.036,13.254-90.103,37.32
	C27.565,75.699,14.31,107.697,14.31,141.735c0,34.035,13.255,66.035,37.321,90.099c24.067,24.068,56.067,37.322,90.103,37.322
	c34.036,0,66.036-13.254,90.101-37.322c24.063-24.064,37.321-56.064,37.321-90.099C269.156,107.698,255.898,75.699,231.835,51.631
	 M258.184,97.941c0.871,2.31,1.685,4.65,2.418,7.024c-0.806-0.147-1.608-0.294-2.418-0.438V97.941z M248.382,77.728
	c1.877,3.114,3.619,6.317,5.226,9.6v16.401c-1.738-0.297-3.48-0.587-5.226-0.871V77.728z M238.582,63.731
	c1.818,2.254,3.563,4.571,5.223,6.951v31.45c-1.738-0.27-3.479-0.534-5.223-0.789V63.731z M228.784,98.684
	c3.553-8.114,3.68-17.915,0-25.98v-19.77c1.792,1.759,3.534,3.567,5.221,5.431v42.321c-1.739-0.243-3.481-0.478-5.221-0.708V98.684z
	 M218.98,44.275c1.783,1.416,3.521,2.881,5.224,4.39v16.937c-1.565-1.848-3.315-3.511-5.224-4.969V44.275z M209.182,55.366V37.233
	c1.774,1.147,3.514,2.341,5.226,3.576v16.857c0,0,0.001,0,0.001,0.001c-2.126-1.148-4.374-2.074-6.706-2.77
	C208.195,55.044,208.691,55.197,209.182,55.366 M199.382,51.832V31.505c1.767,0.928,3.507,1.896,5.222,2.905v19.715
	c-0.99-0.203-1.992-0.376-3.002-0.496c-0.723-0.637-1.465-1.234-2.224-1.799C199.378,51.831,199.379,51.832,199.382,51.832
	 M189.581,46.763V26.89c1.762,0.737,3.502,1.515,5.224,2.329v19.739c0,0.001,0.002,0.002,0.004,0.003
	c-1.688-0.882-3.438-1.611-5.229-2.2C189.577,46.762,189.578,46.762,189.581,46.763 M179.779,23.274
	c1.757,0.566,3.498,1.167,5.224,1.808v20.501c0.001,0,0.002,0,0.002,0.001c-1.72-0.327-3.465-0.534-5.226-0.624V23.274z
	 M169.979,20.553c1.758,0.409,3.498,0.858,5.226,1.341v23.085c0.005,0,0.008,0,0.012-0.001c-1.454,0.086-2.911,0.247-4.364,0.482
	c-0.281-0.295-0.578-0.579-0.871-0.866V20.553H169.979z M160.18,18.686c1.754,0.262,3.492,0.564,5.223,0.899v21.091l0.006,0.005
	c-1.661-1.232-3.409-2.347-5.229-3.328V18.686L160.18,18.686z M150.379,17.622c1.751,0.121,3.491,0.279,5.223,0.471v17.13
	c-1.703-0.674-3.443-1.241-5.223-1.687V17.622z M140.578,17.331c0.386-0.003,0.77-0.015,1.156-0.015
	c1.362,0,2.716,0.031,4.067,0.074v15.278c-1.015-0.136-2.033-0.245-3.058-0.301c-0.724-0.039-1.445-0.061-2.166-0.065
	L140.578,17.331L140.578,17.331z M130.778,17.804c1.731-0.152,3.472-0.271,5.222-0.351v15.068c-1.76,0.177-3.504,0.46-5.222,0.841
	V17.804z M120.977,19.057c1.729-0.291,3.47-0.553,5.223-0.772v16.348c-1.781,0.595-3.524,1.296-5.223,2.097V19.057z M111.176,21.118
	c1.728-0.438,3.467-0.841,5.224-1.205v19.279c-1.814,1.102-3.559,2.323-5.224,3.652V21.118z M101.375,44.678V24.04
	c1.724-0.593,3.466-1.146,5.223-1.664v21.44c-1.765,0.173-3.511,0.465-5.23,0.864L101.375,44.678z M91.575,27.888
	c1.722-0.762,3.462-1.487,5.223-2.171v20.306c0.001-0.001,0.003-0.001,0.005-0.001c-1.794,0.641-3.54,1.406-5.228,2.287V27.888z
	 M81.775,32.748c1.718-0.948,3.457-1.856,5.222-2.725v21.073c0.008-0.007,0.017-0.01,0.025-0.016
	c-1.865,1.31-3.621,2.782-5.247,4.403V32.748z M71.974,38.764c1.711-1.164,3.452-2.287,5.223-3.365v25.24
	c-1.884,1.52-3.632,3.202-5.223,5.019V38.764z M62.174,46.155c1.705-1.42,3.444-2.801,5.223-4.131v29.925
	c-4.258,7.184-5.02,13.302-5.223,14.128V46.155z M52.372,55.258c1.692-1.748,3.434-3.446,5.224-5.093v49.837
	c-1.742,0.23-3.482,0.468-5.224,0.712V55.258z M42.572,66.681c1.672-2.204,3.411-4.354,5.223-6.44v41.134
	c-1.74,0.257-3.482,0.521-5.223,0.793V66.681z M32.771,81.732c1.627-2.942,3.37-5.811,5.222-8.603v29.77
	c-1.742,0.284-3.482,0.575-5.222,0.874V81.732z M28.194,90.876v13.699c-1.84,0.33-3.68,0.666-5.517,1.011
	C24.213,100.54,26.057,95.628,28.194,90.876 M97.478,250.59c0,0,1.793-6.52,3.526-8.109c1.732-1.592,3.981-2.625,5.068-0.65
	c1.087,1.979-1.536,5.209-3.107,5.979C101.393,248.578,98.217,249.713,97.478,250.59 M97.649,241.383c0,0,4.031-7.262,6.56-8.656
	c2.53-1.396,5.514-1.979,6.239,0.693c0.726,2.672-3.342,5.77-5.442,6.232C102.908,240.115,98.787,240.551,97.649,241.383
	 M104.67,253.906c-1.153,0.908-3.559,2.398-4.012,3.246c0,0,0.325-5.662,1.467-7.271c1.141-1.609,2.803-2.852,4.043-1.424
	C107.409,249.885,105.826,252.996,104.67,253.906 M113.629,244.641c-0.25,2.877-5.253,9.506-5.253,9.506
	c0.298-1.377-0.976-5.318-1.403-7.428c-0.426-2.104,0.755-7.082,3.492-7.5C113.201,238.799,113.879,241.76,113.629,244.641
	 M116.254,244.621c-0.107-1.404-2.447-4.824-3.456-6.721c-1.008-1.9-1.29-7.006,1.215-8.188c2.505-1.18,3.998,1.471,4.576,4.297
	C119.167,236.844,116.254,244.621,116.254,244.621 M158.292,258.035c-0.31,0.307-0.716,0.477-1.151,0.477
	c-0.435,0-0.844-0.17-1.149-0.477l-12.606-12.607l2.303-2.303l12.604,12.609C158.925,256.369,158.925,257.398,158.292,258.035
	 M154.563,235.65c-1.095,1.096-2.551,1.699-4.102,1.699c-0.372,0-0.75-0.037-1.118-0.109l-1.133-0.221l-20.83,20.824
	c-0.306,0.311-0.715,0.479-1.149,0.479c-0.414,0-0.806-0.152-1.109-0.438l-0.041-0.041c-0.307-0.307-0.476-0.715-0.476-1.146
	c0-0.434,0.169-0.842,0.476-1.148l14.212-14.213l-4.168-4.168l-1.007,0.17c-0.313,0.053-0.634,0.078-0.953,0.078
	c-1.548,0-3.006-0.604-4.101-1.699l-4.553-4.553l0.294-0.469c1.593-2.551,3.784-4.742,6.336-6.336l0.468-0.291l4.488,4.486
	c1.367,1.367,1.961,3.316,1.588,5.219l-0.223,1.131l4.131,4.131l4.354-4.355l-0.168-1.004c-0.307-1.844,0.299-3.734,1.619-5.057
	l4.556-4.553l0.469,0.293c2.55,1.592,4.741,3.783,6.335,6.332l0.293,0.469L154.563,235.65z M164.876,234.012
	c0.58-2.828,2.072-5.477,4.576-4.297c2.506,1.18,2.224,6.285,1.216,8.186c-1.009,1.896-3.352,5.316-3.456,6.723
	C167.212,244.621,164.3,236.844,164.876,234.012 M176.492,246.719c-0.428,2.107-1.702,6.051-1.403,7.428
	c0,0-5.003-6.629-5.252-9.506c-0.251-2.881,0.427-5.842,3.164-5.422C175.736,239.637,176.921,244.613,176.492,246.719
	 M173.02,233.42c0.725-2.674,3.707-2.09,6.237-0.693c2.528,1.396,6.56,8.656,6.56,8.656c-1.137-0.832-5.258-1.268-7.356-1.73
	C176.361,239.191,172.292,236.092,173.02,233.42 M178.794,253.906c-1.151-0.91-2.735-4.021-1.496-5.449
	c1.24-1.428,2.902-0.186,4.043,1.424c1.144,1.609,1.468,7.271,1.468,7.271C182.354,256.305,179.947,254.814,178.794,253.906
	 M180.5,247.807c-1.57-0.77-4.193-4.002-3.104-5.979c1.088-1.973,3.334-0.939,5.066,0.652c1.73,1.59,3.523,8.107,3.523,8.107
	C185.246,249.713,182.07,248.578,180.5,247.807 M228.727,230.588c-27.873-8.102-56.427-12.219-84.898-12.219
	c-28.279,0-56.653,4.053-84.33,12.047c-1.265,0.365-2.528,0.74-3.792,1.115c-10.023-9.607-18.447-20.869-24.828-33.346
	c72.913-30.229,151.813-30.656,223.646-3.977C248.146,207.861,239.363,220.17,228.727,230.588 M27.68,191.42
	c-6.659-15.229-10.365-32.031-10.365-49.685c0-8.711,0.904-17.211,2.615-25.42c29.082-5.678,58.524-9.334,88.172-10.955
	c3.016,3.178,6.568,7.099,10.062,11.365c-0.944,7.617-1.89,15.256-2.839,22.934c-0.105,0.008-0.207,0.015-0.312,0.023
	c-0.386-4.953-0.769-9.913-1.149-14.882c0.391-0.02,0.786-0.043,1.18-0.066c0.012-3.205,0.028-6.41,0.04-9.615
	c-3.834,0.156-7.666,0.35-11.496,0.569c-0.017,3.263-0.036,6.533-0.053,9.796c0.416-0.031,0.83-0.062,1.244-0.091
	c1.585,12.075,3.174,24.05,4.772,35.941c3.111-0.381,6.227-0.711,9.343-0.988c1.032-8.488,2.062-16.943,3.086-25.366
	c0.105-0.007,0.209-0.012,0.312-0.017c0.919,8.321,1.841,16.615,2.764,24.895c3.119-0.213,6.238-0.367,9.358-0.479
	c1.407-10.576,2.806-21.117,4.199-31.645c2.802-0.857,4.884-4.027,4.884-7.817c0-2.034,3.703-5.295,8.526-8.683
	c-2.069-0.522-3.44-2.95-3.116-5.663c0.104-0.868-0.109-1.769-0.546-2.689c-6.445,4.188-12.104,8.581-12.104,11.095
	c0,4.219-2.582,7.676-5.863,8.022c-0.001,0.705-0.004,1.412-0.005,2.117c0.394-0.007,0.788-0.018,1.184-0.029
	c-0.415,4.913-0.83,9.828-1.247,14.748c-0.104,0.003-0.21,0.006-0.312,0.011c-0.442-3.967-0.884-7.944-1.325-11.921
	c0.502-1.136,0.947-2.856,1.343-4.903c-0.061,0.002-0.119,0.012-0.177,0.012c-3.537,0-6.405-3.608-6.405-8.057
	c0-6.396-11.131-12.616-17.883-18.306c-0.08-0.067-0.142-0.133-0.201-0.199c-11.131,0.646-22.233,1.578-33.3,2.79
	c-1-2.883-1.55-5.976-1.55-9.198c0-9.877,5.101-18.556,12.808-23.562c4.824-7.819,13.961-13.098,24.448-13.098
	c1.285,0,2.548,0.087,3.787,0.24c6.723-7.118,15.963-11.516,26.166-11.516c11.282,0,22.208,4.782,28.208,13.87
	c1.061,1.601,1.836,4.055,1.158,7.12c-1.535,6.959-4.125,11.605-4.125,11.605s6.615-2.452,8.713-11.943
	c0.979-4.44-0.23-7.356-0.514-7.943c1.301-0.171,2.624-0.265,3.975-0.265c7.977,0,15.162,3.058,20.273,7.957
	c0.629,1.593,0.979,3.649,0.436,6.118c-1.537,6.959-4.127,11.604-4.127,11.604s6.619-2.451,8.713-11.942
	c0.389-1.744,0.426-3.246,0.324-4.473c12.545,2.577,21.924,12.849,21.924,25.14c0,3.901-0.951,7.596-2.64,10.91
	c0.015,0.002,0.028,0.005,0.043,0.006c-14.157-1.668-28.376-2.874-42.642-3.617c-4.719,1.867-19.818,8.083-20.202,11.293
	c-0.29,2.43-1.849,4.309-3.702,4.692c0.003,0.264-0.01,0.526-0.041,0.787c-0.107,0.894-0.027,1.755,0.197,2.529
	c-1.067-0.015-2.135-0.031-3.199-0.041c0.003,4.639,0.012,9.273,0.014,13.912c1.785,0.022,3.574,0.056,5.359,0.096
	c-0.003-1.5-0.004-2.995-0.007-4.494c0.663,0.014,1.327,0.029,1.993,0.045c0.018,8.651,0.033,17.305,0.053,25.955
	c-0.729-0.027-1.459-0.057-2.189-0.08c0.006,3.148,0.012,6.301,0.018,9.445c4.385,0.172,8.768,0.439,13.146,0.813
	c-0.013-3.188-0.021-6.365-0.034-9.553c-0.729-0.055-1.457-0.105-2.188-0.154c-0.03-8.712-0.059-17.428-0.085-26.144
	c0.664,0.026,1.327,0.056,1.989,0.085c0.009,1.513,0.015,3.027,0.019,4.541c1.785,0.087,3.569,0.188,5.354,0.294
	c-0.021-4.73-0.039-9.456-0.061-14.185c-4.154-0.17-8.313-0.301-12.472-0.4c0.208-0.516,0.358-1.074,0.431-1.669
	c0.23-1.929,5.9-5.198,11.439-7.955c30.297,1.405,60.389,4.946,90.115,10.589c1.799,8.406,2.752,17.122,2.752,26.059
	c0,18.367-4.004,35.816-11.182,51.527C183.701,164.49,103.69,162.242,27.68,191.42"/>
<path d="M92.806,188.314c-0.999-0.713-2.333-0.977-4.004-0.756c-1.32,0.176-2.508,0.613-3.561,1.336
	c-1.052,0.719-1.879,1.629-2.477,2.727c-0.599,1.098-0.899,2.287-0.902,3.541c-0.001,1.279,0.279,2.398,0.841,3.336
	c0.563,0.938,1.396,2.014,2.5,3.193c1.061,1.146,1.858,2.121,2.388,2.949c0.53,0.826,0.793,1.773,0.786,2.854
	c-0.004,1.24-0.361,2.365-1.071,3.408c-0.71,1.041-1.605,1.75-2.688,2.117c-0.879,0.299-1.583,0.234-2.112-0.207
	c-0.528-0.441-0.793-1.186-0.791-2.225c0.002-1.137,0.32-2.141,0.954-2.988c0.636-0.852,1.486-1.42,2.551-1.723
	c-0.121-0.691-0.427-1.178-0.917-1.461c-0.49-0.277-1.095-0.328-1.81-0.131c-0.78,0.215-1.489,0.668-2.133,1.369
	c-0.645,0.699-1.156,1.555-1.533,2.564c-0.379,1.01-0.565,2.068-0.567,3.162c0.002,1.293,0.265,2.336,0.793,3.115
	c0.527,0.781,1.281,1.25,2.257,1.418s2.106,0.008,3.392-0.453c1.531-0.547,2.928-1.377,4.19-2.469c1.265-1.092,2.265-2.316,3-3.686
	c0.734-1.369,1.108-2.748,1.114-4.166c0.007-1.043-0.168-1.971-0.523-2.785c-0.357-0.818-0.785-1.521-1.283-2.105
	c-0.502-0.586-1.164-1.277-1.981-2.084c-1.004-1.02-1.74-1.893-2.21-2.6c-0.47-0.707-0.704-1.533-0.7-2.465
	c0.004-1.027,0.268-1.918,0.797-2.66c0.528-0.744,1.204-1.17,2.029-1.285c0.682-0.098,1.215,0.041,1.608,0.412
	c0.388,0.373,0.583,0.916,0.578,1.635c-0.002,0.563-0.118,1.117-0.348,1.674c-0.23,0.555-0.542,1.027-0.934,1.416
	c0.47,0.617,1.096,0.848,1.881,0.705c0.701-0.127,1.269-0.518,1.706-1.164s0.657-1.43,0.663-2.354
	C94.296,190.08,93.802,189.027,92.806,188.314"/>
<path d="M99.978,192.615c0.683-0.102,1.269-0.424,1.758-0.971c0.488-0.549,0.737-1.162,0.742-1.854
	c0.004-0.688-0.234-1.246-0.718-1.686c-0.481-0.438-1.066-0.621-1.748-0.545c-0.681,0.076-1.263,0.395-1.742,0.955
	c-0.479,0.563-0.721,1.201-0.725,1.91c-0.005,0.713,0.23,1.281,0.702,1.703C98.716,192.555,99.294,192.713,99.978,192.615"/>
<path d="M138.745,190.797c-1.956,0.027-3.57,0.623-4.844,1.781c-1.272,1.156-2.194,2.523-2.763,4.09
	c-0.521,1.436-0.794,2.75-0.84,3.945c-0.801,0.793-1.545,1.43-2.231,1.881c-0.806,0.529-1.771,0.846-2.898,0.955
	c-0.793,0.078-1.365-0.027-1.717-0.318c-0.353-0.293-0.527-0.904-0.522-1.828c0.007-1.061,0.211-2.271,0.614-3.627
	c0.402-1.357,0.918-2.518,1.547-3.484c0.629-0.965,1.256-1.461,1.881-1.5c0.29-0.016,0.508,0.074,0.653,0.271
	s0.216,0.471,0.215,0.826c-0.001,0.484-0.129,1.043-0.383,1.674c0.375,0.197,0.738,0.289,1.093,0.268
	c0.478-0.029,0.876-0.229,1.188-0.6c0.314-0.369,0.473-0.879,0.474-1.527c0.004-0.742-0.259-1.342-0.787-1.799
	c-0.529-0.455-1.418-0.656-2.666-0.584c-1.934,0.107-3.532,0.787-4.795,2.033c-1.266,1.25-2.189,2.709-2.772,4.359
	c-0.582,1.652-0.876,3.152-0.886,4.479c0,0.027,0.002,0.055,0.003,0.084c-0.243,0.48-0.486,0.881-0.729,1.18
	c-0.376,0.467-0.877,0.744-1.501,0.836c-0.458,0.066-0.78,0.014-0.966-0.178c-0.185-0.186-0.276-0.473-0.275-0.863
	c0.004-0.328,0.073-0.795,0.214-1.389c0.14-0.594,0.293-1.205,0.465-1.83c0.274-1.025,0.489-1.893,0.639-2.6
	c0.151-0.703,0.227-1.336,0.232-1.898c0.008-1.104-0.3-1.896-0.918-2.379c-0.618-0.479-1.458-0.672-2.517-0.559
	c-1.39,0.15-2.607,0.842-3.651,2.102c0.118-0.539,0.234-1.072,0.352-1.605c-1.492,0.18-2.984,0.369-4.473,0.574
	c-0.73,3.391-1.457,6.826-2.185,10.307c-0.234,0.854-0.612,1.592-1.131,2.217c-0.519,0.627-1.079,1.016-1.677,1.158
	c-0.455,0.104-0.781,0.094-0.973-0.039c-0.197-0.131-0.291-0.412-0.289-0.84c0.002-0.361,0.047-0.711,0.13-1.053
	c0.768-3.789,1.536-7.52,2.305-11.199c-1.488,0.225-2.977,0.461-4.464,0.711c-0.724,3.584-1.447,7.221-2.166,10.912
	c-0.17,0.918-0.257,1.65-0.261,2.197c-0.008,1.32,0.29,2.225,0.894,2.707c0.603,0.486,1.399,0.582,2.388,0.313
	c1.175-0.317,2.365-1.041,3.569-2.142c0.29-0.265,0.568-0.569,0.833-0.907c-0.125,0.604-0.251,1.209-0.376,1.815
	c1.489-0.365,2.978-0.711,4.47-1.037c0.73-3.422,1.457-6.806,2.187-10.146c0.254-0.862,0.59-1.582,1.008-2.147
	c0.418-0.567,0.898-0.888,1.437-0.955c0.747-0.094,1.117,0.365,1.109,1.373c-0.001,0.414-0.081,0.968-0.229,1.66
	c-0.151,0.694-0.311,1.399-0.482,2.118c-0.043,0.146-0.122,0.479-0.241,0.99c-0.117,0.517-0.228,1.045-0.338,1.59
	c-0.108,0.547-0.162,1.027-0.166,1.445c-0.006,0.957,0.284,1.702,0.87,2.239c0.587,0.537,1.516,0.685,2.785,0.468
	c1.082-0.187,2.129-0.722,3.142-1.591c0.459-0.396,0.893-0.93,1.302-1.594c0.209,0.528,0.519,0.946,0.932,1.25
	c0.85,0.621,2.045,0.825,3.589,0.647c2.754-0.324,5.159-1.662,7.206-4.021c0.16,0.969,0.555,1.696,1.191,2.187
	c0.855,0.655,2.044,0.938,3.57,0.871c3.053-0.136,4.865-1.498,5.43-4.218c-0.543,0.427-1.15,0.781-1.818,1.069
	c-0.669,0.289-1.297,0.445-1.881,0.464c-1.296,0.041-1.942-0.688-1.938-2.22c0.001-0.146,0.022-0.424,0.065-0.83
	c1.253-0.121,2.431-0.452,3.539-0.996c1.105-0.543,1.992-1.243,2.662-2.108c0.666-0.862,1.001-1.807,1.001-2.831
	C142.18,191.652,141.035,190.768,138.745,190.797 M139.13,195.531c-0.428,0.695-0.992,1.27-1.691,1.725
	c-0.7,0.459-1.447,0.709-2.24,0.756c0.36-1.465,0.899-2.791,1.62-3.975c0.72-1.182,1.446-1.777,2.174-1.787
	c0.52-0.006,0.781,0.367,0.781,1.117C139.773,194.119,139.559,194.84,139.13,195.531"/>
<path d="M148.922,204.895c1.128-0.486,2.277-0.701,3.446-0.637c0.543,0.033,1.065,0.111,1.567,0.238
	c0.502,0.125,1.139,0.316,1.912,0.582c0.647,0.219,1.197,0.398,1.646,0.531c0.447,0.133,0.883,0.221,1.3,0.262
	c0.729,0.07,1.419,0,2.063-0.223s1.158-0.568,1.541-1.045c0.384-0.477,0.572-1.045,0.567-1.709
	c-0.004-0.475-0.142-1.078-0.416-1.809c-0.032-0.021-0.063-0.045-0.094-0.064c-0.519,0.479-1.017,0.799-1.494,0.967
	c-0.479,0.17-1,0.227-1.563,0.178c-0.375-0.035-0.797-0.115-1.27-0.238c-0.467-0.125-0.744-0.195-0.829-0.223
	c-0.479-0.131-0.991-0.252-1.534-0.365s-1.063-0.184-1.563-0.215c-0.688-0.043-1.335-0.004-1.939,0.111
	c0.436-0.715,1.061-1.385,1.87-2.002c0.812-0.621,1.902-1.354,3.273-2.191c1.391-0.855,2.5-1.588,3.327-2.203
	c0.83-0.613,1.527-1.334,2.095-2.16c0.565-0.83,0.849-1.76,0.841-2.785c-0.01-1.617-0.57-2.924-1.688-3.896
	c-1.115-0.979-2.576-1.496-4.383-1.563c-1.352-0.05-2.521,0.146-3.518,0.577c-0.996,0.435-1.746,1.005-2.253,1.712
	c-0.509,0.704-0.763,1.444-0.761,2.219c0.002,0.884,0.218,1.591,0.646,2.119c0.428,0.53,0.965,0.81,1.609,0.834
	c0.395,0.017,0.8-0.052,1.217-0.194c0.415-0.15,0.799-0.363,1.152-0.646v-0.111c-0.439-0.243-0.799-0.614-1.082-1.118
	c-0.283-0.502-0.424-1.068-0.428-1.697c-0.002-0.631,0.226-1.153,0.68-1.573c0.455-0.419,1.047-0.615,1.775-0.593
	c0.785,0.033,1.375,0.363,1.764,1c0.389,0.636,0.584,1.488,0.589,2.556c0.007,0.978-0.239,1.896-0.733,2.752
	c-0.496,0.856-1.105,1.633-1.833,2.326c-0.726,0.69-1.68,1.516-2.864,2.471c-1.121,0.925-2.006,1.687-2.649,2.283
	c-0.646,0.601-1.19,1.265-1.64,1.991c-0.446,0.729-0.672,1.479-0.67,2.25c0,0.423,0.064,0.854,0.19,1.302
	C148.839,204.891,148.88,204.895,148.922,204.895"/>
<path d="M171.422,207.533c2.37,0.414,4.319-0.037,5.854-1.461c1.529-1.422,2.64-3.322,3.326-5.699
	c0.686-2.377,1.019-4.732,1.004-7.035c-0.019-2.32-0.533-4.213-1.547-5.627c-1.016-1.422-2.517-2.199-4.504-2.359
	c-2.052-0.166-3.877,0.404-5.476,1.656s-2.837,2.975-3.713,5.16c-0.878,2.188-1.313,4.586-1.296,7.223
	c0.013,2.217,0.502,4.018,1.47,5.436C167.507,206.244,169.137,207.133,171.422,207.533 M170.551,194.293
	c0.565-2.141,1.301-3.895,2.202-5.25c0.901-1.357,1.829-2.008,2.783-1.922c0.577,0.051,1.028,0.51,1.347,1.379
	c0.314,0.869,0.479,1.941,0.487,3.217c0.019,2.326-0.229,4.6-0.741,6.793c-0.512,2.197-1.199,3.934-2.061,5.217
	c-0.86,1.285-1.78,1.83-2.756,1.668c-1.373-0.229-2.069-1.793-2.09-4.713C169.71,198.563,169.984,196.438,170.551,194.293"/>
<path d="M186.734,210.605c1.588-7.561,3.177-15.352,4.772-23.418c-1.67,0.855-3.108,1.352-4.327,1.521
	c-1.22,0.17-2.396,0.186-3.533,0.049c-0.119,0.469-0.244,0.938-0.361,1.4c0.982,0.125,1.964,0.25,2.945,0.385
	c-1.319,6.469-2.639,12.771-3.957,18.934C183.764,209.832,185.253,210.211,186.734,210.605"/>
<path d="M191.333,205.723c0.007,1.254,0.308,2.439,0.897,3.57c0.592,1.129,1.406,2.125,2.444,3.004
	c1.038,0.877,2.212,1.543,3.521,1.988c1.474,0.504,2.822,0.621,4.057,0.324c1.23-0.305,2.208-0.963,2.932-2
	c0.721-1.031,1.082-2.328,1.082-3.863c0-1.063-0.187-2.117-0.552-3.148c-0.368-1.031-0.813-1.971-1.337-2.814
	c-0.521-0.848-1.215-1.854-2.079-2.988c3.011-1.189,4.519-3.072,4.519-5.52c0-0.99-0.242-1.939-0.728-2.828
	c-0.479-0.891-1.155-1.621-2.021-2.195c-0.864-0.57-1.846-0.936-2.938-1.088c-1.258-0.184-2.406-0.059-3.443,0.352
	c-1.043,0.404-1.856,1.037-2.449,1.889c-0.596,0.854-0.891,1.834-0.883,2.961c0.004,1.037,0.25,2.045,0.738,3.035
	c0.486,0.992,1.176,2.092,2.063,3.33c-2.013,0.557-3.486,1.313-4.429,2.262C191.79,202.941,191.325,204.18,191.333,205.723
	 M199.518,190.586c0.522-0.561,1.176-0.785,1.959-0.662c0.637,0.102,1.137,0.428,1.5,0.982c0.36,0.555,0.541,1.258,0.543,2.104
	c0,0.945-0.224,1.883-0.672,2.799c-0.449,0.918-1.056,1.684-1.813,2.299c-0.741-0.994-1.311-1.895-1.703-2.707
	c-0.395-0.814-0.591-1.635-0.594-2.477C198.732,191.926,198.993,191.148,199.518,190.586 M196.175,203.598
	c0.521-0.932,1.271-1.646,2.255-2.156c1.07,1.471,1.883,2.781,2.438,3.906c0.557,1.129,0.834,2.262,0.836,3.383
	c0.003,1.168-0.326,2.078-0.985,2.711c-0.664,0.635-1.453,0.791-2.373,0.492c-0.884-0.285-1.591-0.893-2.127-1.816
	c-0.537-0.93-0.809-2.02-0.813-3.289C195.398,205.598,195.656,204.527,196.175,203.598"/>
<linearGradient id="SVGID_3_" gradientUnits="userSpaceOnUse" x1="41.8149" y1="169.3037" x2="41.8149" y2="142.4391" gradientTransform="matrix(1 0 0 -1 -0.02 282.5596)">
	<stop  offset="0" style="stop-color:#FFFFFF"/>
	<stop  offset="1" style="stop-color:#FFFFFF;stop-opacity:0.1"/>
</linearGradient>
<path opacity="0.6" fill="url(#SVGID_3_)" enable-background="new    " d="M37.107,144.857l-0.875-20l11.125-1.125
	C47.357,123.732,36.607,128.607,37.107,144.857z"/>
<linearGradient id="SVGID_4_" gradientUnits="userSpaceOnUse" x1="65.0649" y1="168.6279" x2="65.0649" y2="150.1915" gradientTransform="matrix(1 0 0 -1 -0.02 282.5596)">
	<stop  offset="0" style="stop-color:#FFFFFF"/>
	<stop  offset="1" style="stop-color:#FFFFFF;stop-opacity:0.1"/>
</linearGradient>
<path opacity="0.4" fill="url(#SVGID_4_)" enable-background="new    " d="M60.357,135.621l-0.875-13.729l11.125-0.772
	C70.607,121.121,59.857,124.467,60.357,135.621z"/>
<linearGradient id="SVGID_5_" gradientUnits="userSpaceOnUse" x1="88.2769" y1="168.6328" x2="88.2769" y2="156.1117" gradientTransform="matrix(1 0 0 -1 -0.02 282.5596)">
	<stop  offset="0" style="stop-color:#FFFFFF"/>
	<stop  offset="1" style="stop-color:#FFFFFF;stop-opacity:0.1"/>
</linearGradient>
<path opacity="0.2" fill="url(#SVGID_5_)" enable-background="new    " d="M85.073,128.655l-0.594-9.322l7.554-0.524
	C92.032,118.81,84.733,121.082,85.073,128.655z"/>
<linearGradient id="SVGID_6_" gradientUnits="userSpaceOnUse" x1="107.6255" y1="167.3408" x2="107.6255" y2="160.7009" gradientTransform="matrix(1 0 0 -1 -0.02 282.5596)">
	<stop  offset="0" style="stop-color:#FFFFFF"/>
	<stop  offset="1" style="stop-color:#FFFFFF;stop-opacity:0.1"/>
</linearGradient>
<path opacity="0.2" fill="url(#SVGID_6_)" enable-background="new    " d="M105.917,123.029l-0.315-4.944l4.006-0.278
	C109.608,117.808,105.737,119.013,105.917,123.029z"/>
<linearGradient id="SVGID_7_" gradientUnits="userSpaceOnUse" x1="-320.1567" y1="167.8213" x2="-320.1567" y2="142.391" gradientTransform="matrix(-1 0 0 -1 -71.7559 282.5596)">
	<stop  offset="0" style="stop-color:#FFFFFF"/>
	<stop  offset="1" style="stop-color:#FFFFFF;stop-opacity:0.1"/>
</linearGradient>
<path opacity="0.4" fill="url(#SVGID_7_)" enable-background="new    " d="M252.141,144.656l0.697-18.935l-8.875-1.065
	C243.963,124.657,252.539,129.272,252.141,144.656z"/>
<linearGradient id="SVGID_8_" gradientUnits="userSpaceOnUse" x1="-301.7612" y1="169.0049" x2="-301.7612" y2="147.7434" gradientTransform="matrix(-1 0 0 -1 -71.7559 282.5596)">
	<stop  offset="0" style="stop-color:#FFFFFF"/>
	<stop  offset="1" style="stop-color:#FFFFFF;stop-opacity:0.1"/>
</linearGradient>
<path opacity="0.4" fill="url(#SVGID_8_)" enable-background="new    " d="M233.131,138.566l0.584-15.83l-7.42-0.89
	C226.295,121.846,233.465,125.704,233.131,138.566z"/>
<linearGradient id="SVGID_9_" gradientUnits="userSpaceOnUse" x1="-281.0166" y1="170.5508" x2="-281.0166" y2="151.9796" gradientTransform="matrix(-1 0 0 -1 -71.7559 282.5596)">
	<stop  offset="0" style="stop-color:#FFFFFF"/>
	<stop  offset="1" style="stop-color:#FFFFFF;stop-opacity:0.1"/>
</linearGradient>
<path opacity="0.4" fill="url(#SVGID_9_)" enable-background="new    " d="M212.729,133.856l0.647-13.828l-8.231-0.777
	C205.146,119.25,213.1,122.621,212.729,133.856z"/>
<linearGradient id="SVGID_10_" gradientUnits="userSpaceOnUse" x1="-261.5923" y1="169.6318" x2="-261.5923" y2="157.1107" gradientTransform="matrix(-1 0 0 -1 -71.7559 282.5596)">
	<stop  offset="0" style="stop-color:#FFFFFF"/>
	<stop  offset="1" style="stop-color:#FFFFFF;stop-opacity:0.1"/>
</linearGradient>
<path opacity="0.2" fill="url(#SVGID_10_)" enable-background="new    " d="M193.02,127.655l0.594-9.322l-7.555-0.524
	C186.059,117.81,193.357,120.082,193.02,127.655z"/>
<linearGradient id="SVGID_11_" gradientUnits="userSpaceOnUse" x1="-241.7339" y1="168.5234" x2="-241.7339" y2="161.8848" gradientTransform="matrix(-1 0 0 -1 -71.7559 282.5596)">
	<stop  offset="0" style="stop-color:#FFFFFF"/>
	<stop  offset="1" style="stop-color:#FFFFFF;stop-opacity:0.1"/>
</linearGradient>
<path opacity="0.2" fill="url(#SVGID_11_)" enable-background="new    " d="M171.667,121.846l0.313-4.944l-4.006-0.278
	C167.977,116.624,171.848,117.829,171.667,121.846z"/>
</svg>
