<?xml version="1.0" encoding="utf-8"?>
<!-- Generator: Adobe Illustrator 16.0.3, SVG Export Plug-In . SVG Version: 6.00 Build 0)  -->
<!DOCTYPE svg PUBLIC "-//W3C//DTD SVG 1.1//EN" "http://www.w3.org/Graphics/SVG/1.1/DTD/svg11.dtd">
<svg version="1.1" id="Vrstva_1" xmlns="http://www.w3.org/2000/svg" xmlns:xlink="http://www.w3.org/1999/xlink" x="0px" y="0px"
	 width="206.93px" height="206.93px" viewBox="0 0 206.93 206.93" enable-background="new 0 0 206.93 206.93" xml:space="preserve">
<path fill="#FFFFFF" d="M103.465,112.963c0,0,25.834-24.348,25.168-50.348c11.004,10.68,27.159,6.851,53.827,14.185
	c-11.211-52.313-55.106-58.58-72.161-59V4.954c0-2.255-3.062-4.083-6.834-4.083c-3.773,0-6.832,1.828-6.832,4.083v12.845
	c-17.057,0.421-60.953,6.688-72.163,59c26.667-7.334,42.823-3.505,53.827-14.185C77.63,88.615,103.465,112.963,103.465,112.963z"/>
<path fill="#FFFFFF" d="M80.268,104.275c1.24-6.125-6.396-26.646-6.396-26.646c-25.32,2.824-32.105-0.49-36.99,11.365
	c-7.572,36.898,15.008,48.727,15.008,48.727S77.905,115.929,80.268,104.275z"/>
<path fill="#FFFFFF" d="M133.056,77.63c0,0-7.638,20.521-6.396,26.646c2.361,11.653,28.377,33.446,28.377,33.446
	s22.58-11.828,15.008-48.727C165.161,77.139,158.376,80.455,133.056,77.63z"/>
<path fill="#FFFFFF" d="M89.583,108.563c0,0-12.616,15.231-12.622,21.456c-0.012,15.117,21.376,29.408,26.504,32.615
	c5.127-3.207,26.516-17.498,26.504-32.615c-0.007-6.225-12.621-21.456-12.621-21.456l-13.883,9.209L89.583,108.563z"/>
<path fill="#FFFFFF" d="M103.465,172.455l-8.863-5.879c0,0-9.441,11.399-9.445,16.059c-0.008,10.16,12.896,19.818,18.31,23.424
	c5.413-3.604,18.315-13.264,18.309-23.424c-0.004-4.658-9.445-16.059-9.445-16.059L103.465,172.455z"/>
<path fill="#FFFFFF" d="M69.694,129.681c-27.136,22.72,7.033,49.703,7.033,49.703s8.74-12.791,11.127-18.444
	C70.165,148.301,69.694,129.681,69.694,129.681z"/>
<path fill="#FFFFFF" d="M137.233,129.681c0,0-0.471,18.619-18.158,31.259c2.387,5.653,11.125,18.444,11.125,18.444
	S164.37,152.4,137.233,129.681z"/>
</svg>
