<?xml version="1.0" encoding="utf-8"?>
<!-- Generator: Adobe Illustrator 16.0.3, SVG Export Plug-In . SVG Version: 6.00 Build 0)  -->
<!DOCTYPE svg PUBLIC "-//W3C//DTD SVG 1.1//EN" "http://www.w3.org/Graphics/SVG/1.1/DTD/svg11.dtd">
<svg version="1.1" id="Vrstva_1" xmlns="http://www.w3.org/2000/svg" xmlns:xlink="http://www.w3.org/1999/xlink" x="0px" y="0px"
	 width="24px" height="24px" viewBox="0 0 24 24" enable-background="new 0 0 24 24" xml:space="preserve">
<path fill="#FFFFFF" d="M11.984,16.814c2.596,0,4.706-2.11,4.706-4.707c0-1.409-0.623-2.674-1.605-3.538
	c-0.346-0.303-0.734-0.556-1.158-0.748c-0.593-0.27-1.249-0.421-1.941-0.421s-1.349,0.151-1.941,0.421
	C9.62,8.016,9.23,8.269,8.886,8.571C7.901,9.435,7.278,10.7,7.278,12.109C7.278,14.704,9.39,16.814,11.984,16.814z M12,8.631
	c1.921,0,3.479,1.557,3.479,3.478c0,1.92-1.558,3.479-3.479,3.479s-3.479-1.557-3.479-3.479C8.521,10.188,10.079,8.631,12,8.631z
	 M17.223,9H24v10.277C24,21.887,21.887,24,19.277,24H4.785C2.177,24,0,21.887,0,19.277V9h6.747
	c-0.544,0.913-0.872,1.969-0.872,3.109c0,3.374,2.735,6.11,6.109,6.11c3.374,0,6.109-2.736,6.109-6.11
	C18.094,10.969,17.766,9.913,17.223,9z M19.277,0H7v5H6V0H5v5H4V0.077C3.654,0.134,3.318,0.22,3,0.347V5H2V0.898
	C0.798,1.755,0,3.144,0,4.722V8h7.473c1.167-1.282,2.798-2,4.511-2c1.722,0,3.351,0.725,4.511,2H24V4.722
	C24,2.114,21.887,0,19.277,0z M22,5.265C22,5.671,21.667,6,21.255,6h-2.511C18.333,6,18,5.671,18,5.265v-2.53
	C18,2.329,18.333,2,18.744,2h2.511C21.667,2,22,2.329,22,2.735V5.265z"/>
</svg>
