<?xml version="1.0" encoding="utf-8"?>
<!-- Generator: Adobe Illustrator 16.0.3, SVG Export Plug-In . SVG Version: 6.00 Build 0)  -->
<!DOCTYPE svg PUBLIC "-//W3C//DTD SVG 1.1//EN" "http://www.w3.org/Graphics/SVG/1.1/DTD/svg11.dtd">
<svg version="1.1" id="Vrstva_1" xmlns="http://www.w3.org/2000/svg" xmlns:xlink="http://www.w3.org/1999/xlink" x="0px" y="0px"
	 width="24px" height="24px" viewBox="0 0 24 24" enable-background="new 0 0 24 24" xml:space="preserve">
<path fill="#FFFFFF" d="M22.092,2.514C21.757,1.771,21.313,1.521,20.5,1.26c-1.523-0.489-3.177,0.078-3.989,0.501
	C15.531,1.159,16.496,0.5,11.5,0.5c-1.835,0-4.361,1.112-5,2.315v3.28V7.73c-4.693,0-5.563,2.321-5.563,4.269
	c0,2.731,3.209,7.666,6.327,8.396c1.038,2.132,3.219,3.105,5.75,3.105h2.648c3.534,0,5.837-2.365,5.837-5.899V6.084
	C21.775,5.181,22.631,3.709,22.092,2.514z M2.938,11.999c0-1.178,0.446-2.269,3.678-2.269v7.871c0,0.113,0.011,0.224,0.017,0.336
	C4.863,16.694,2.938,13.662,2.938,11.999z M8.495,5.398c-0.15-0.574-0.235-1.344,0.08-1.931c0.325-0.606,1.072-0.999,2.219-1.166
	c3.074-0.451,4.957,1.069,5.031,1.13c0.352,0.299,0.861,0.317,1.233,0.047c0.014-0.011,1.421-0.995,2.668-0.594
	c0.351,0.112,0.475,0.299,0.542,0.45c0.234,0.516,0.112,1.37-0.085,2.063C16.29,5.628,12.388,5.628,8.495,5.398z"/>
<path fill="none" stroke="#000000" stroke-miterlimit="10" d="M327.5-570.501h-10.938v8.72c0,2.502,2.028,4.531,4.531,4.531h1.875
	c2.503,0,4.531-2.029,4.531-4.531V-570.501z"/>
<path fill="none" stroke="#000000" stroke-miterlimit="10" d="M310.438-580.313"/>
<path fill="none" stroke="#000000" stroke-width="2" stroke-miterlimit="10" d="M316.563-561.438c-1.829,0-3.313-1.483-3.313-3.313
	s1.483-3.313,3.313-3.313"/>
<line fill="none" stroke="#000000" stroke-miterlimit="10" x1="318.875" y1="-568.063" x2="318.875" y2="-560.313"/>
<line fill="none" stroke="#000000" stroke-miterlimit="10" x1="322.031" y1="-568.063" x2="322.031" y2="-560.313"/>
<line fill="none" stroke="#000000" stroke-miterlimit="10" x1="325.188" y1="-568.063" x2="325.188" y2="-560.313"/>
<path fill="none" stroke="#000000" stroke-miterlimit="10" d="M316.563-570.501c0,0,0-2.999,3.563-2.999s3.063,1.5,3.063,1.5
	s1.063-0.875,2.375-0.875s1.938,2.374,1.938,2.374"/>
<path d="M327.5-616.5h-10.938v8.72c0,2.502,2.028,4.531,4.531,4.531h1.875c2.503,0,4.531-2.029,4.531-4.531V-616.5z"/>
<path fill="none" stroke="#000000" stroke-width="2" stroke-miterlimit="10" d="M317.561-606.438c-1.829,0-4.311-3.479-4.311-5.309
	s1.483-2.314,3.313-2.314"/>
<line fill="none" stroke="#000000" stroke-miterlimit="10" x1="318.875" y1="-614.062" x2="318.875" y2="-606.312"/>
<line fill="none" stroke="#000000" stroke-miterlimit="10" x1="322.031" y1="-614.062" x2="322.031" y2="-606.312"/>
<line fill="none" stroke="#000000" stroke-miterlimit="10" x1="325.188" y1="-614.062" x2="325.188" y2="-606.312"/>
<path fill="none" stroke="#000000" stroke-miterlimit="10" d="M317.062-616.001c0,0-0.499-3.498,3.063-3.498s3.063,1.5,3.063,1.5
	s1.624-1.275,2.874-0.875c1.751,0.562,0.939,2.873,0.939,2.873"/>
<g>
	<rect x="9.5" y="8.73" width="0.881" height="10.945"/>
</g>
<g>
	<rect x="13.5" y="8.73" width="1" height="10.945"/>
</g>
<g>
	<rect x="17.5" y="8.73" width="1" height="10.945"/>
</g>
</svg>
