<?xml version="1.0" encoding="utf-8"?>
<!-- Generator: Adobe Illustrator 16.0.3, SVG Export Plug-In . SVG Version: 6.00 Build 0)  -->
<!DOCTYPE svg PUBLIC "-//W3C//DTD SVG 1.1//EN" "http://www.w3.org/Graphics/SVG/1.1/DTD/svg11.dtd">
<svg version="1.1" id="Vrstva_1" xmlns="http://www.w3.org/2000/svg" xmlns:xlink="http://www.w3.org/1999/xlink" x="0px" y="0px"
	 width="24px" height="24px" viewBox="0 0 24 24" enable-background="new 0 0 24 24" xml:space="preserve">
<path fill="#FFFFFF" d="M14.206,17.499c0,0,0.111-0.386,0.826-0.7c0.276-0.146,0.708-0.403,1.084-0.728
	c1.006-0.87,2.183-2.285,2.546-3.726c0.497-1.98,0.599-3.519,0.068-6.08c-0.53-2.56-1.663-5.828-1.663-5.828
	s-1.462-0.28-5.044-0.282v0c-0.008,0-0.015,0-0.023,0c-0.008,0-0.015,0-0.022,0v0C8.395,0.158,6.934,0.438,6.934,0.438
	S5.801,3.705,5.27,6.265c-0.531,2.561-0.428,4.1,0.071,6.08c0.36,1.441,1.539,2.856,2.544,3.726
	c0.375,0.324,0.809,0.581,1.084,0.728c0.714,0.314,0.826,0.7,0.826,0.7s0.824,2.057,1.183,3.219c0.36,1.163-0.891,1.523-0.891,1.523
	s-3.444,0.896-3.565,0.911c-0.228,0.063-0.27,0.424-0.086,0.473c0.97,0.163,5.067,0.214,5.543,0.219v0.002
	c0,0,0.008-0.002,0.022-0.002c0.015,0,0.023,0.002,0.023,0.002v-0.002c0.475-0.005,4.572-0.056,5.54-0.219
	c0.187-0.049,0.143-0.409-0.086-0.473c-0.117-0.015-3.563-0.911-3.563-0.911s-1.251-0.36-0.891-1.523
	C13.384,19.556,14.206,17.499,14.206,17.499"/>
</svg>
