<?xml version="1.0" encoding="utf-8"?>
<!-- Generator: Adobe Illustrator 16.0.3, SVG Export Plug-In . SVG Version: 6.00 Build 0)  -->
<!DOCTYPE svg PUBLIC "-//W3C//DTD SVG 1.1//EN" "http://www.w3.org/Graphics/SVG/1.1/DTD/svg11.dtd">
<svg version="1.1" id="Vrstva_1" xmlns="http://www.w3.org/2000/svg" xmlns:xlink="http://www.w3.org/1999/xlink" x="0px" y="0px"
	 width="24px" height="24px" viewBox="0 0 24 24" enable-background="new 0 0 24 24" xml:space="preserve">
<g transform="translate(61.047)">
	<path fill="#FFFFFF" d="M-50.047,13.298l-5.818,8.125c-0.299,0.416-0.798,0.634-1.306,0.571c-0.578-0.071-1.373-0.289-2.192-0.879
		c-0.82-0.59-1.28-1.274-1.532-1.8c-0.223-0.462-0.176-1.007,0.122-1.423l5.818-8.126c0.276-0.387,0.641-0.703,1.061-0.926
		l1.145-0.604c0.229-0.122,0.435-0.284,0.606-0.478c0.556-0.63,2.047-2.283,4.691-4.953l0.046-0.212
		c0.012-0.05,0.048-0.087,0.098-0.1l0.146-0.037c0.063-0.016,0.105-0.076,0.101-0.141l-0.016-0.18
		c-0.005-0.075,0.051-0.14,0.125-0.143c0.176-0.005,0.517,0.046,0.999,0.393c0.483,0.347,0.641,0.656,0.692,0.824
		c0.021,0.071-0.022,0.146-0.096,0.164l-0.175,0.044c-0.063,0.016-0.107,0.075-0.102,0.14l0.013,0.151
		c0.004,0.05-0.021,0.098-0.063,0.123l-0.186,0.112c-1.677,3.365-2.762,5.311-3.179,6.039c-0.13,0.227-0.217,0.473-0.258,0.73
		l-0.205,1.28C-49.586,12.464-49.769,12.91-50.047,13.298z M-37.32,17.893l-5.818-8.126c-0.276-0.387-0.64-0.703-1.061-0.926
		l-1.145-0.604c-0.23-0.122-0.436-0.284-0.607-0.478c-0.136-0.155-0.333-0.375-0.587-0.654c-0.039-0.043-0.114-0.034-0.142,0.019
		c-0.882,1.692-1.476,2.751-1.743,3.219c-0.086,0.149-0.143,0.313-0.171,0.485c-0.059,0.365-0.059,0.737,0,1.103l0.011,0.063
		c0.074,0.471,0.259,0.917,0.535,1.304l5.818,8.125c0.295,0.413,0.789,0.634,1.292,0.572c0.58-0.069,1.381-0.285,2.206-0.88
		c0.821-0.59,1.28-1.274,1.533-1.8C-36.977,18.854-37.023,18.309-37.32,17.893 M-52.737,3.374l0.175,0.044
		c0.063,0.016,0.106,0.076,0.101,0.141l-0.011,0.151c-0.005,0.05,0.02,0.097,0.063,0.123l0.186,0.112
		c0.311,0.623,0.598,1.192,0.868,1.719c0.025,0.05,0.091,0.061,0.129,0.019c0.437-0.468,0.963-1.024,1.583-1.667
		c0.051-0.053,0.054-0.137,0.002-0.189c-0.313-0.322-0.645-0.66-1.001-1.019l-0.046-0.212c-0.009-0.049-0.047-0.087-0.096-0.099
		l-0.146-0.036c-0.063-0.016-0.106-0.077-0.101-0.142l0.016-0.18c0.005-0.075-0.05-0.14-0.124-0.143
		c-0.175-0.005-0.517,0.045-1.001,0.393c-0.482,0.347-0.639,0.656-0.691,0.824C-52.853,3.282-52.81,3.357-52.737,3.374"/>
</g>
</svg>
